<svg width="244" height="187" viewBox="0 0 244 187" fill="none" xmlns="http://www.w3.org/2000/svg">
<path d="M0 32H240C242.209 32 244 33.7909 244 36V183C244 185.209 242.209 187 240 187H4C1.79086 187 0 185.209 0 183V32Z" fill="#C6C6C6"/>
<path d="M15 48C15 45.7909 16.7909 44 19 44H228C230.209 44 232 45.7909 232 48V171C232 173.209 230.209 175 228 175H19C16.7909 175 15 173.209 15 171V48Z" fill="#F6F6F6"/>
<path d="M0 4C0 1.79086 1.79086 0 4 0H28C30.2091 0 32 1.79086 32 4V32H0V4Z" fill="#C6C6C6"/>
<path d="M39 4C39 1.79086 40.7909 0 43 0H67C69.2091 0 71 1.79086 71 4V32H39V4Z" fill="#8B8B8B"/>
<path d="M81 4C81 1.79086 82.7909 0 85 0H109C111.209 0 113 1.79086 113 4V32H81V4Z" fill="#8B8B8B"/>
<path d="M120 4C120 1.79086 121.791 0 124 0H148C150.209 0 152 1.79086 152 4V32H120V4Z" fill="#8B8B8B"/>
<rect x="39" y="101" width="16" height="16" fill="#BBA207"/>
<rect x="68" y="101" width="16" height="16" fill="#BB8907"/>
<rect x="97" y="101" width="16" height="16" fill="#77714B"/>
<rect x="126" y="101" width="16" height="16" fill="#BBA207"/>
<rect x="155" y="101" width="16" height="16" fill="#BBA207"/>
<rect x="184" y="101" width="16" height="16" fill="#BBA207"/>
<rect x="126" y="127" width="16" height="16" fill="#BBA207"/>
<rect x="97" y="76" width="16" height="16" fill="#07B0BB"/>
<rect x="97" y="127" width="16" height="16" fill="#077ABB"/>
<line x1="55" y1="108.5" x2="68" y2="108.5" stroke="black"/>
<line x1="97" y1="109.5" x2="84" y2="109.5" stroke="black"/>
<line x1="126" y1="109.5" x2="113" y2="109.5" stroke="black"/>
<line x1="126" y1="135.5" x2="113" y2="135.5" stroke="black"/>
<line x1="155" y1="109.5" x2="142" y2="109.5" stroke="black"/>
<line x1="184" y1="109.5" x2="171" y2="109.5" stroke="black"/>
<line x1="89.5" y1="135" x2="89.5" y2="110" stroke="black"/>
<line x1="89.5" y1="109" x2="89.5" y2="84" stroke="black"/>
<line x1="89" y1="83.5" x2="97" y2="83.5" stroke="black"/>
<line x1="89" y1="134.5" x2="97" y2="134.5" stroke="black"/>
</svg>
